<svg xmlns="http://www.w3.org/2000/svg" viewBox="0 0 723.65 35.17"><defs><style>.a{fill:#333;}.b{fill:#ff5722;}.c{fill:#fff;}</style></defs><title>architecture</title><rect class="a" x="0.9" y="3.61" width="100" height="30"/><path class="b" d="M104.31,42.79l-24.83.27c-8.27.13-16.64.15-25,.2l-50.21.27H3.51v-.77l-.13-30v-.91h.91l50,.22,25,.11,25,.14h.43v.43Zm-.07-.07,0-30,.06.06-100,0,.1-.1v30l-.09-.09Z" transform="translate(-3.37 -9.15)"/><path class="b" d="M28,26.43H25.2v4.39h-2V26.43H20.44v-1.6H28Z" transform="translate(-3.37 -9.15)"/><path class="b" d="M31.07,26.43v.68h3.71v1.44H31.07v.67h4.64v1.6H29.15v-6h6.57v1.6Z" transform="translate(-3.37 -9.15)"/><path class="b" d="M37.46,28.74a7.48,7.48,0,0,0,3.24.68c.74,0,1.59-.09,1.59-.4s-.54-.29-1.28-.34c-2.75-.17-4-.64-4-1.95,0-1.53,1.66-2.1,3.57-2.1a8.32,8.32,0,0,1,3.2.61l-.63,1.47a7.32,7.32,0,0,0-2.69-.48c-.79,0-1.53.09-1.53.4s.37.28,1,.32c2.4.14,4.26.47,4.26,2S42.7,31,40.6,31a8.7,8.7,0,0,1-3.84-.81Z" transform="translate(-3.37 -9.15)"/><path class="b" d="M52.32,26.43H49.54v4.39h-2V26.43H44.77v-1.6h7.55Z" transform="translate(-3.37 -9.15)"/><path class="b" d="M54.47,30c0,.62-.55,1-1.27,1s-1.26-.36-1.26-1,.55-1,1.26-1S54.47,29.42,54.47,30Z" transform="translate(-3.37 -9.15)"/><path class="b" d="M57.68,26.43v1.08h3.71V29H57.68v1.79H55.76v-6h6.58v1.6Z" transform="translate(-3.37 -9.15)"/><path class="b" d="M63.54,24.75c.9-.07,2-.12,3.12-.12,3.3,0,4.33,1.05,4.33,2.2a2.07,2.07,0,0,1-1.46,1.87l1.33,1.36-1.44,1.08-1.85-2-.76,0c-.47,0-.94,0-1.35,0v1.7H63.54Zm1.92,2.82c.35,0,.77,0,1.23,0,1.77,0,2.3-.33,2.3-.67s-.53-.66-2.3-.66c-.46,0-.88,0-1.23,0Z" transform="translate(-3.37 -9.15)"/><path class="b" d="M79.86,27.72v2A5.22,5.22,0,0,1,76.24,31c-2.65,0-4.44-1.37-4.44-3.19s1.79-3.2,4.44-3.2a5.87,5.87,0,0,1,2.66.58l-.73,1.46a4.88,4.88,0,0,0-1.93-.4c-1.33,0-2.45.58-2.45,1.56s1.12,1.55,2.45,1.55a3.63,3.63,0,0,0,1.82-.44V27.72Z" transform="translate(-3.37 -9.15)"/><polygon class="b" points="196.44 19.39 113.17 19.39 113.17 17.39 196.44 17.39 196.44 19.39"/><circle class="b" cx="192.6" cy="18.5" r="6"/><path class="c" d="M196,22.65a5,5,0,1,1-5,5,5,5,0,0,1,5-5m0-2a7,7,0,1,0,7,7,7,7,0,0,0-7-7Z" transform="translate(-3.37 -9.15)"/><circle class="b" cx="116.6" cy="18.5" r="6"/><path class="c" d="M120,22.65a5,5,0,1,1-5,5,5,5,0,0,1,5-5m0-2a7,7,0,1,0,7,7,7,7,0,0,0-7-7Z" transform="translate(-3.37 -9.15)"/><rect class="a" x="208.3" y="4.39" width="100" height="30"/><path class="b" d="M311.71,43.57l-24.83.27c-8.28.13-16.65.15-25,.21l-50.21.26h-.76v-.77l-.13-30v-.9h.9l50,.22,25,.11,25,.14h.44v.43Zm-.07-.07,0-30,.06.06-100,0,.1-.1v30l-.09-.09Z" transform="translate(-3.37 -9.15)"/><polygon class="b" points="402.61 19.39 319.34 19.39 319.34 17.39 402.61 17.39 402.61 19.39"/><circle class="b" cx="398.77" cy="18.5" r="6"/><path class="c" d="M402.14,22.65a5,5,0,1,1-5,5,5,5,0,0,1,5-5m0-2a7,7,0,1,0,7,7,7,7,0,0,0-7-7Z" transform="translate(-3.37 -9.15)"/><circle class="b" cx="322.77" cy="18.5" r="6"/><path class="c" d="M326.14,22.65a5,5,0,1,1-5,5,5,5,0,0,1,5-5m0-2a7,7,0,1,0,7,7,7,7,0,0,0-7-7Z" transform="translate(-3.37 -9.15)"/><rect class="a" x="414.47" y="4.39" width="100" height="30"/><path class="b" d="M517.88,43.57l-24.83.27c-8.28.13-16.65.15-25,.21l-50.21.26h-.76v-.77l-.13-30v-.9h.9l50,.22,25,.11,25,.14h.44v.43Zm-.07-.07,0-30,.06.06-100,0,.1-.1v30l-.09-.09Z" transform="translate(-3.37 -9.15)"/><path class="a" d="M140.47,14v1.58h-1.91V9.51c.9-.08,2.07-.12,2.94-.12,3.43,0,4.51,1.09,4.51,2.35s-1.24,2.3-4.18,2.3C141.35,14,140.89,14,140.47,14ZM144,11.73c0-.34-.54-.7-2.3-.7-.47,0-.88,0-1.24,0v1.35c.36,0,.77,0,1.24,0C143.47,12.44,144,12.07,144,11.73Z" transform="translate(-3.37 -9.15)"/><path class="a" d="M152.16,14.74h-4.28L147,15.9l-1.43-1L150,9.15l4.44,5.71-1.42,1ZM151,13.22l-1-1.32-1,1.32Z" transform="translate(-3.37 -9.15)"/><path class="a" d="M155.35,9.51c.9-.07,2-.12,3.12-.12,3.3,0,4.33,1,4.33,2.19a2.09,2.09,0,0,1-1.46,1.88l1.33,1.36-1.45,1.08-1.84-2-.76,0c-.47,0-.94,0-1.35,0v1.7h-1.92Zm1.92,2.82c.35,0,.76,0,1.23,0,1.77,0,2.3-.33,2.3-.67s-.53-.66-2.3-.66q-.7,0-1.23,0Z" transform="translate(-3.37 -9.15)"/><path class="a" d="M164.3,13.5a7.48,7.48,0,0,0,3.24.68c.74,0,1.59-.09,1.59-.4s-.54-.29-1.28-.34c-2.75-.18-4-.64-4-1.95,0-1.54,1.66-2.1,3.57-2.1a8.32,8.32,0,0,1,3.2.61L170,11.47a7.32,7.32,0,0,0-2.69-.48c-.79,0-1.53.09-1.53.4s.37.28,1,.32c2.4.14,4.26.47,4.26,2s-1.51,2.09-3.61,2.09A8.7,8.7,0,0,1,163.6,15Z" transform="translate(-3.37 -9.15)"/><path class="a" d="M174.17,11.19v.68h3.71V13.3h-3.71V14h4.65v1.6h-6.57v-6h6.57v1.6Z" transform="translate(-3.37 -9.15)"/><path class="b" d="M233.18,25.69H228.9L228,26.86l-1.43-1.05L231,20.1l4.44,5.71-1.42,1.05ZM231,22.85l-1,1.32h2Z" transform="translate(-3.37 -9.15)"/><path class="b" d="M236.37,26.62V20.46c.9-.06,2.08-.12,2.94-.12,3.25,0,4.14.8,4.14,1.82a1.39,1.39,0,0,1-1,1.35c.71.22,1.21.63,1.21,1.36,0,1.07-1.05,1.87-4.3,1.87C238.45,26.74,237.27,26.68,236.37,26.62Zm5.16-4.21c0-.31-.49-.51-2-.51-.47,0-.88,0-1.21,0v.91h1.21C241.12,22.86,241.53,22.7,241.53,22.41Zm.16,2.26c0-.29-.41-.45-2.19-.45h-1.21v.91c.33,0,.74,0,1.21,0C241.2,25.18,241.69,25,241.69,24.67Z" transform="translate(-3.37 -9.15)"/><path class="b" d="M245.1,24.46a7.55,7.55,0,0,0,3.24.68c.75,0,1.59-.1,1.59-.41s-.53-.29-1.28-.34c-2.75-.17-4-.64-4-1.95,0-1.53,1.67-2.1,3.58-2.1a8.17,8.17,0,0,1,3.2.62l-.64,1.46a7.43,7.43,0,0,0-2.68-.48c-.79,0-1.54.1-1.54.41s.38.28,1,.32c2.4.13,4.25.46,4.25,2s-1.5,2.1-3.6,2.1a8.5,8.5,0,0,1-3.84-.82Z" transform="translate(-3.37 -9.15)"/><path class="b" d="M260,22.14h-2.79v4.4h-2v-4.4h-2.78v-1.6H260Z" transform="translate(-3.37 -9.15)"/><path class="b" d="M261.13,20.46c.9-.06,2-.12,3.12-.12,3.3,0,4.33,1.06,4.33,2.2a2.07,2.07,0,0,1-1.46,1.87l1.33,1.36L267,26.86l-1.85-2c-.24,0-.5,0-.76,0-.47,0-.94,0-1.35,0v1.71h-1.92Zm1.92,2.82c.35,0,.77,0,1.23,0,1.77,0,2.3-.33,2.3-.68s-.53-.66-2.3-.66c-.46,0-.88,0-1.23,0Z" transform="translate(-3.37 -9.15)"/><path class="b" d="M275.65,25.69h-4.28l-.88,1.17-1.42-1.05,4.44-5.71L278,25.81l-1.43,1.05Zm-1.14-1.52-1-1.32-1,1.32Z" transform="translate(-3.37 -9.15)"/><path class="b" d="M285.6,26a5.78,5.78,0,0,1-2.91.72c-2.65,0-4.45-1.38-4.45-3.2s1.8-3.2,4.45-3.2a5.67,5.67,0,0,1,2.91.72l-.81,1.41a4.75,4.75,0,0,0-2.1-.49c-1.33,0-2.45.58-2.45,1.56s1.12,1.56,2.45,1.56a4.75,4.75,0,0,0,2.1-.49Z" transform="translate(-3.37 -9.15)"/><path class="b" d="M293.87,22.14h-2.78v4.4h-2v-4.4h-2.78v-1.6h7.55Z" transform="translate(-3.37 -9.15)"/><path class="b" d="M217.63,34.06a7.55,7.55,0,0,0,3.24.68c.74,0,1.59-.1,1.59-.41s-.53-.29-1.28-.34c-2.75-.17-4-.63-4-2,0-1.53,1.66-2.1,3.58-2.1a8.08,8.08,0,0,1,3.19.62L223.3,32a7.47,7.47,0,0,0-2.68-.48c-.8,0-1.54.1-1.54.41s.38.28,1,.32c2.4.13,4.25.46,4.25,2s-1.5,2.1-3.6,2.1a8.47,8.47,0,0,1-3.84-.82Z" transform="translate(-3.37 -9.15)"/><path class="b" d="M228,36.14V34l-3.31-2.79,1.19-1.37L229,32.53l3.09-2.71,1.19,1.37L229.94,34v2.16Z" transform="translate(-3.37 -9.15)"/><path class="b" d="M234.15,29.78l5.4,3.34v-3h1.92V36.5l-5.41-3.34v3h-1.91Z" transform="translate(-3.37 -9.15)"/><path class="b" d="M242.63,30.14h7.55v1.6H247.4v4.4h-2v-4.4h-2.79Z" transform="translate(-3.37 -9.15)"/><path class="b" d="M256.13,35.29h-4.28L251,36.46l-1.42-1.05L254,29.7l4.45,5.71L257,36.46ZM254,32.45l-1,1.32h2Z" transform="translate(-3.37 -9.15)"/><path class="b" d="M264.41,33.11l2.43,1.74-1.13,1.49-2.84-2.09-2.73,2.09L259,34.88l2.36-1.71-2.44-1.74,1.14-1.49L262.9,32l2.73-2.09,1.14,1.46Z" transform="translate(-3.37 -9.15)"/><path class="b" d="M271.61,30.14h7.55v1.6h-2.78v4.4h-2v-4.4h-2.78Z" transform="translate(-3.37 -9.15)"/><path class="b" d="M284.35,34.45c-.24,0-.49,0-.76,0-.47,0-.93,0-1.35,0v1.71h-1.92V30.06c.9-.06,2-.12,3.12-.12,3.3,0,4.33,1.06,4.33,2.2A2.07,2.07,0,0,1,286.31,34l1.34,1.36-1.45,1.09Zm1.42-2.21c0-.34-.53-.66-2.3-.66-.46,0-.88,0-1.23,0v1.27c.35,0,.77,0,1.23,0C285.24,32.92,285.77,32.59,285.77,32.24Z" transform="translate(-3.37 -9.15)"/><path class="b" d="M295.54,36.14H289v-6h6.57v1.6H290.9v.68h3.71v1.44H290.9v.68h4.64Z" transform="translate(-3.37 -9.15)"/><path class="b" d="M303.56,36.14H297v-6h6.58v1.6h-4.66v.68h3.71v1.44h-3.71v.68h4.65Z" transform="translate(-3.37 -9.15)"/><path class="a" d="M325.28,10.52h7.54v1.59H330v4.4h-2v-4.4h-2.78Z" transform="translate(-3.37 -9.15)"/><path class="a" d="M338,14.83l-.76,0c-.47,0-.94,0-1.35,0v1.7H334V10.44c.9-.07,2-.12,3.12-.12,3.3,0,4.33,1,4.33,2.19A2.09,2.09,0,0,1,340,14.39l1.33,1.35-1.44,1.09Zm1.42-2.21c0-.35-.53-.67-2.3-.67-.47,0-.88,0-1.23,0v1.27c.35,0,.76,0,1.23,0C338.91,13.29,339.44,13,339.44,12.62Z" transform="translate(-3.37 -9.15)"/><path class="a" d="M348.51,15.66h-4.28l-.88,1.17-1.43-1,4.45-5.7,4.44,5.7-1.42,1Zm-2.14-2.83-1,1.32h2Z" transform="translate(-3.37 -9.15)"/><path class="a" d="M351.7,10.16l5.4,3.34v-3H359v6.35l-5.4-3.34v3H351.7Z" transform="translate(-3.37 -9.15)"/><path class="a" d="M360.92,14.43a7.55,7.55,0,0,0,3.24.68c.75,0,1.59-.09,1.59-.41s-.53-.28-1.28-.33c-2.75-.18-4-.64-4-1.95,0-1.54,1.67-2.1,3.58-2.1a8.27,8.27,0,0,1,3.19.61l-.63,1.46a7.43,7.43,0,0,0-2.68-.48c-.8,0-1.54.1-1.54.41s.38.28,1.05.32c2.4.14,4.25.47,4.25,2s-1.5,2.09-3.6,2.09a8.62,8.62,0,0,1-3.84-.81Z" transform="translate(-3.37 -9.15)"/><path class="a" d="M368.88,16.51v-6h6.57v1.59h-4.66v1.08h3.71v1.52h-3.71v1.8Z" transform="translate(-3.37 -9.15)"/><path class="a" d="M376.09,13.51c0-1.82,1.72-3.19,4.29-3.19s4.29,1.37,4.29,3.19-1.72,3.2-4.29,3.2S376.09,15.34,376.09,13.51Zm6.58,0c0-1-1-1.56-2.29-1.56s-2.29.59-2.29,1.56,1,1.56,2.29,1.56S382.67,14.48,382.67,13.51Z" transform="translate(-3.37 -9.15)"/><path class="a" d="M389.9,14.83l-.76,0c-.47,0-.93,0-1.35,0v1.7h-1.91V10.44c.9-.07,2-.12,3.11-.12,3.3,0,4.34,1,4.34,2.19a2.11,2.11,0,0,1-1.47,1.88l1.34,1.35-1.45,1.09Zm1.43-2.21c0-.35-.54-.67-2.3-.67-.47,0-.88,0-1.24,0v1.27c.36,0,.77,0,1.24,0C390.79,13.29,391.33,13,391.33,12.62Z" transform="translate(-3.37 -9.15)"/><path class="a" d="M394.53,10.16l4.22,2.89L403,10.16v6.35h-1.91V13.59l-2.31,1.7-2.3-1.7v2.92h-1.92Z" transform="translate(-3.37 -9.15)"/><path class="b" d="M432.42,22.67c0-1.82,1.72-3.2,4.29-3.2s4.29,1.38,4.29,3.2-1.72,3.2-4.29,3.2S432.42,24.49,432.42,22.67Zm6.58,0c0-1-1-1.56-2.29-1.56s-2.29.58-2.29,1.56,1,1.56,2.29,1.56S439,23.64,439,22.67Z" transform="translate(-3.37 -9.15)"/><path class="b" d="M442.2,19.59c.91-.07,2.08-.12,2.95-.12,3.43,0,4.5,1.1,4.5,2.36s-1.23,2.29-4.18,2.29c-.47,0-.93,0-1.35,0v1.59H442.2Zm1.92,2.9c.35,0,.77,0,1.23,0,1.77,0,2.31-.36,2.31-.71s-.54-.7-2.31-.7c-.46,0-.88,0-1.23,0Z" transform="translate(-3.37 -9.15)"/><path class="b" d="M458,21.27h-2.79v4.4h-2v-4.4h-2.78v-1.6H458Z" transform="translate(-3.37 -9.15)"/><path class="b" d="M459.13,19.67h1.92v6h-1.92Z" transform="translate(-3.37 -9.15)"/><path class="b" d="M471.09,19.31v6.36h-1.91V22.75l-2.31,1.69-2.3-1.69v2.92h-1.92V19.31l4.22,2.89Z" transform="translate(-3.37 -9.15)"/><path class="b" d="M472.7,19.67h1.92v6H472.7Z" transform="translate(-3.37 -9.15)"/><path class="b" d="M479.46,24.07h3.64v1.6h-7.44l3.88-4.4H476v-1.6h7.35Z" transform="translate(-3.37 -9.15)"/><path class="b" d="M486.38,21.27V22h3.71v1.44h-3.71v.68H491v1.6h-6.56v-6H491v1.6Z" transform="translate(-3.37 -9.15)"/><path class="b" d="M492.47,19.59c.91-.07,1.73-.12,2.46-.12,3.84,0,5.4,1.38,5.4,3.2s-1.56,3.2-5.4,3.2c-.73,0-1.55-.05-2.46-.12Zm1.92,4.61c.25,0,.52,0,.78,0,1.9,0,3.16-.48,3.16-1.56s-1.26-1.56-3.16-1.56l-.78,0Z" transform="translate(-3.37 -9.15)"/><path class="b" d="M425.63,33.19a7.55,7.55,0,0,0,3.24.68c.75,0,1.59-.1,1.59-.41s-.53-.29-1.28-.34c-2.75-.17-4-.64-4-1.95,0-1.53,1.67-2.1,3.58-2.1a8.08,8.08,0,0,1,3.19.62l-.63,1.46a7.43,7.43,0,0,0-2.68-.48c-.79,0-1.54.09-1.54.41s.38.28,1.05.32c2.4.13,4.25.46,4.25,2s-1.5,2.1-3.6,2.1a8.64,8.64,0,0,1-3.84-.82Z" transform="translate(-3.37 -9.15)"/><path class="b" d="M437.94,33.11v2.16H436V33.11l-3.32-2.79L433.9,29,437,31.66,440.07,29l1.19,1.37Z" transform="translate(-3.37 -9.15)"/><path class="b" d="M449.47,35.63l-5.4-3.35v3h-1.92V28.91l5.4,3.34v-3h1.92Z" transform="translate(-3.37 -9.15)"/><path class="b" d="M458.18,30.87H455.4v4.4h-2v-4.4h-2.79v-1.6h7.55Z" transform="translate(-3.37 -9.15)"/><path class="b" d="M464.13,34.42h-4.28L459,35.59l-1.42-1.05L462,28.83l4.45,5.71L465,35.59ZM463,32.9l-1-1.32-1,1.32Z" transform="translate(-3.37 -9.15)"/><path class="b" d="M473.71,35.47l-2.84-2.09-2.73,2.09L467,34l2.36-1.71-2.44-1.74,1.14-1.49,2.84,2.09,2.73-2.09,1.14,1.46-2.36,1.71L474.85,34Z" transform="translate(-3.37 -9.15)"/><path class="b" d="M479.61,29.27h7.55v1.6h-2.78v4.4h-2v-4.4h-2.78Z" transform="translate(-3.37 -9.15)"/><path class="b" d="M492.35,33.58c-.24,0-.49,0-.76,0-.47,0-.93,0-1.35,0v1.71h-1.92V29.19c.91-.06,2-.12,3.12-.12,3.3,0,4.33,1.06,4.33,2.2a2.07,2.07,0,0,1-1.46,1.87l1.34,1.36-1.45,1.09Zm1.43-2.21c0-.34-.54-.66-2.31-.66-.46,0-.88,0-1.23,0V32c.35,0,.77,0,1.23,0C493.24,32,493.78,31.72,493.78,31.37Z" transform="translate(-3.37 -9.15)"/><path class="b" d="M503.54,35.27H497v-6h6.57v1.6H498.9v.68h3.71V33H498.9v.68h4.64Z" transform="translate(-3.37 -9.15)"/><path class="b" d="M511.56,35.27H505v-6h6.58v1.6h-4.66v.68h3.71V33h-3.71v.68h4.65Z" transform="translate(-3.37 -9.15)"/><polygon class="b" points="611.36 19.39 528.09 19.39 528.09 17.39 611.36 17.39 611.36 19.39"/><circle class="b" cx="607.52" cy="18.5" r="6"/><path class="c" d="M610.89,22.65a5,5,0,1,1-5,5,5,5,0,0,1,5-5m0-2a7,7,0,1,0,7,7,7,7,0,0,0-7-7Z" transform="translate(-3.37 -9.15)"/><circle class="b" cx="531.52" cy="18.5" r="6"/><path class="c" d="M534.89,22.65a5,5,0,1,1-5,5,5,5,0,0,1,5-5m0-2a7,7,0,1,0,7,7,7,7,0,0,0-7-7Z" transform="translate(-3.37 -9.15)"/><rect class="a" x="623.22" y="4.39" width="100" height="30"/><path class="b" d="M726.63,43.57l-24.83.27c-8.28.13-16.65.15-25,.21l-50.21.26h-.76v-.77l-.13-30v-.9h.9l50,.22,25,.11,25,.14H727v.43Zm-.07-.07,0-30,.06.06-100,0,.1-.1v30l-.09-.09Z" transform="translate(-3.37 -9.15)"/><path class="a" d="M548.13,13.41v2a5.31,5.31,0,0,1-3.62,1.26c-2.65,0-4.45-1.37-4.45-3.2s1.8-3.19,4.45-3.19a5.9,5.9,0,0,1,2.66.58l-.74,1.46a4.67,4.67,0,0,0-1.92-.41c-1.33,0-2.45.59-2.45,1.56s1.12,1.56,2.45,1.56a3.69,3.69,0,0,0,1.82-.44V13.41Z" transform="translate(-3.37 -9.15)"/><path class="a" d="M556,16.51h-6.57v-6H556v1.59h-4.66v.68h3.71v1.44h-3.71v.68H556Z" transform="translate(-3.37 -9.15)"/><path class="a" d="M557.47,10.16l5.4,3.34v-3h1.92v6.35l-5.4-3.34v3h-1.92Z" transform="translate(-3.37 -9.15)"/><path class="a" d="M573,16.51H566.4v-6H573v1.59h-4.65v.68H572v1.44h-3.71v.68H573Z" transform="translate(-3.37 -9.15)"/><path class="a" d="M578.44,14.83l-.76,0c-.47,0-.93,0-1.35,0v1.7h-1.92V10.44c.91-.07,2-.12,3.12-.12,3.3,0,4.34,1,4.34,2.19a2.11,2.11,0,0,1-1.47,1.88l1.34,1.35-1.45,1.09Zm1.43-2.21c0-.35-.54-.67-2.31-.67-.46,0-.88,0-1.23,0v1.27c.35,0,.77,0,1.23,0C579.33,13.29,579.87,13,579.87,12.62Z" transform="translate(-3.37 -9.15)"/><path class="a" d="M588.94,15.66h-4.29l-.88,1.17-1.42-1,4.44-5.7,4.45,5.7-1.42,1Zm-2.15-2.83-1,1.32h2Z" transform="translate(-3.37 -9.15)"/><path class="a" d="M590.61,10.52h7.54v1.59h-2.78v4.4h-2v-4.4h-2.78Z" transform="translate(-3.37 -9.15)"/><path class="a" d="M605.88,16.51h-6.56v-6h6.57v1.59h-4.65v.68H605v1.44h-3.71v.68h4.64Z" transform="translate(-3.37 -9.15)"/><path class="b" d="M643.05,24.83h7.55v1.6h-2.78v4.39h-2V26.43h-2.79Z" transform="translate(-3.37 -9.15)"/><path class="b" d="M658.33,30.82h-6.56v-6h6.57v1.6h-4.65v.68h3.71v1.43h-3.71v.68h4.64Z" transform="translate(-3.37 -9.15)"/><path class="b" d="M660.08,28.74a7.48,7.48,0,0,0,3.24.68c.74,0,1.59-.09,1.59-.4s-.54-.29-1.28-.34c-2.75-.18-4-.64-4-1.95,0-1.54,1.66-2.1,3.57-2.1a8.32,8.32,0,0,1,3.2.61l-.63,1.47a7.32,7.32,0,0,0-2.69-.48c-.79,0-1.53.09-1.53.4s.37.28,1,.32c2.4.14,4.26.47,4.26,2S665.32,31,663.22,31a8.7,8.7,0,0,1-3.84-.81Z" transform="translate(-3.37 -9.15)"/><path class="b" d="M667.39,24.83h7.55v1.6h-2.78v4.39h-2V26.43h-2.78Z" transform="translate(-3.37 -9.15)"/><path class="b" d="M677.09,30c0,.62-.56,1-1.27,1s-1.26-.36-1.26-1,.55-1,1.26-1S677.09,29.42,677.09,30Z" transform="translate(-3.37 -9.15)"/><path class="b" d="M682.22,27.83l-2,3.27-3.49-5.71,1.54-.88,2,3.27,2-3.27,2,3.27,2-3.27,1.54.88-3.49,5.71Z" transform="translate(-3.37 -9.15)"/><path class="b" d="M693.37,30h-4.28l-.88,1.16-1.43-1,4.45-5.71,4.44,5.71-1.42,1Zm-2.14-2.84-1,1.32h2Z" transform="translate(-3.37 -9.15)"/><path class="b" d="M696.85,28.74a7.55,7.55,0,0,0,3.24.68c.75,0,1.59-.09,1.59-.4s-.53-.29-1.28-.34c-2.75-.18-4-.64-4-1.95,0-1.54,1.67-2.1,3.58-2.1a8.27,8.27,0,0,1,3.19.61l-.63,1.47a7.22,7.22,0,0,0-2.68-.48c-.8,0-1.54.09-1.54.4s.38.28,1.05.32c2.4.14,4.25.47,4.25,2S702.1,31,700,31a8.66,8.66,0,0,1-3.84-.81Z" transform="translate(-3.37 -9.15)"/><path class="b" d="M704.81,24.47,709,27.36l4.22-2.89v6.35h-1.92V27.91L709,29.6l-2.3-1.69v2.91h-1.92Z" transform="translate(-3.37 -9.15)"/></svg>