<svg xmlns="http://www.w3.org/2000/svg" viewBox="0 0 270 138"><defs><style>.a{fill:#fff;}.b{fill:#ff5722;}</style></defs><title>icon</title><path class="a" d="M0,6H270l-6,6s.23,9.07,0,12c-.49,6.36-47.56,6.19-66,30-15,19.37,0,48,0,48l24,24v12H198s-41.33-12-54-12-48,12-48,12H72V126l24-24s13.75-27.73,0-48C77.49,26.71,12.26,19.22,0,6Z"/><path class="a" d="M72,6s8.65-6,12-6H270V6Z"/><path class="b" d="M126.26,113.88l3.45-26H118.85V80.1H130.9l2.52-19.21H122V53.07h12.58l3.45-25.3h7.68l-3.31,25.3H156.2l3.45-25.3h7.81l-3.31,25.3H175v7.82H163L160.58,80.1H172v7.82H159.38l-3.44,26H148l3.45-26H137.66l-3.45,26ZM152.63,80.1l2.51-19.21H141.37L138.85,80.1Z"/></svg>